<?xml version="1.0" encoding="UTF-8" standalone="no"?>
<svg
   xmlns:dc="http://purl.org/dc/elements/1.1/"
   xmlns:cc="http://creativecommons.org/ns#"
   xmlns:rdf="http://www.w3.org/1999/02/22-rdf-syntax-ns#"
   xmlns:svg="http://www.w3.org/2000/svg"
   xmlns="http://www.w3.org/2000/svg"
   xmlns:sodipodi="http://sodipodi.sourceforge.net/DTD/sodipodi-0.dtd"
   xmlns:inkscape="http://www.inkscape.org/namespaces/inkscape"
   width="60"
   height="54"
   viewBox="0 0 60 54"
   fill="none"
   version="1.1"
   id="svg163"
   sodipodi:docname="shopping-cart_.svg"
   inkscape:version="1.0 (4035a4fb49, 2020-05-01)">
  <metadata
     id="metadata169">
    <rdf:RDF>
      <cc:Work
         rdf:about="">
        <dc:format>image/svg+xml</dc:format>
        <dc:type
           rdf:resource="http://purl.org/dc/dcmitype/StillImage" />
        <dc:title></dc:title>
      </cc:Work>
    </rdf:RDF>
  </metadata>
  <defs
     id="defs167" />
  <sodipodi:namedview
     inkscape:guide-bbox="true"
     showguides="true"
     inkscape:document-rotation="0"
     pagecolor="#ffffff"
     bordercolor="#666666"
     borderopacity="1"
     objecttolerance="10"
     gridtolerance="10"
     guidetolerance="10"
     inkscape:pageopacity="0"
     inkscape:pageshadow="2"
     inkscape:window-width="1621"
     inkscape:window-height="1040"
     id="namedview165"
     showgrid="false"
     inkscape:zoom="8.27"
     inkscape:cx="50"
     inkscape:cy="29.101945"
     inkscape:window-x="26"
     inkscape:window-y="0"
     inkscape:window-maximized="1"
     inkscape:current-layer="svg163" />
  <circle
     cx="45"
     cy="15"
     r="15"
     fill="#1ab0ce"
     id="circle155" />
  <path
     d="m 16,52 c 2.2091,0 4,-1.7909 4,-4 0,-2.2091 -1.7909,-4 -4,-4 -2.2091,0 -4,1.7909 -4,4 0,2.2091 1.7909,4 4,4 z"
     stroke="#1ab0ce"
     stroke-width="4"
     stroke-linecap="round"
     stroke-linejoin="round"
     id="path157" />
  <path
     d="m 40,52 c 2.2091,0 4,-1.7909 4,-4 0,-2.2091 -1.7909,-4 -4,-4 -2.2091,0 -4,1.7909 -4,4 0,2.2091 1.7909,4 4,4 z"
     stroke="#1ab0ce"
     stroke-width="4"
     stroke-linecap="round"
     stroke-linejoin="round"
     id="path159" />
  <path
     d="M 11.34,18 H 46 l -3.36,16.78 c -0.3775,1.9005 -2.0628,3.2571 -4,3.22 H 17.5 c -2.021,0.0171 -3.7373,-1.476 -4,-3.48 L 10.46,11.48 C 10.1992,9.49119 8.50583,8.00304 6.5,8 H 2"
     stroke="#1ab0ce"
     stroke-width="4"
     stroke-linecap="round"
     stroke-linejoin="round"
     id="path161" />
</svg>
